#!OML:ASF X:\für Bonn\!DataBase\2005_08_12_Daniel\c3d\Daniel.ASF
:FULLY-SPECIFIED
:DEGREES
229
root 0.912999 15.7564 -18.0852 205.781 149.02 -163.87
lowerback 90.5167 -8.55654 11.9243
upperback 5.69474 3.7488 -3.1712
thorax -11.0154 2.51195 -9.62908
lowerneck 1.44495 -10.0243 -0.417898
upperneck 4.46631 -13.2602 4.10484
head 1.48064 -6.47563 1.19956
rclavicle 0 -4.53229e-014
rhumerus 67.8268 -21.4543 -91.9869
rradius 4.8649
rwrist 68.536
rhand -41.6859 -1.07692
rfingers 7.12502
rthumb -14.5926 -30.5436
lclavicle 0 -4.53229e-014
lhumerus -26.9724 -18.4036 97.283
lradius 63.1104
lwrist 12.0098
lhand -10.0749 -10.3021
lfingers 7.12502
lthumb 15.9115 19.0642
rfemur -61.0416 -13.9697 3.18147
rtibia 76.3025
rfoot -31.2228 -13.4789
rtoes -18.4972
lfemur -64.0839 -8.69796 -28.8638
ltibia 62.4147
lfoot -13.582 -26.2143
ltoes -5.61725
230
root 0.91142 15.7684 -18.0812 205.752 149.069 -163.97
lowerback 90.3388 -8.43701 11.8363
upperback 5.7666 3.73624 -3.19048
thorax -10.9745 2.51324 -9.62559
lowerneck 1.32709 -10.0338 -0.360036
upperneck 4.41893 -13.279 4.12712
head 1.4834 -6.48574 1.19204
rclavicle -7.31528e-014 2.38542e-015
rhumerus 67.3259 -21.5566 -91.6791
rradius 4.93447
rwrist 67.237
rhand -41.3218 -0.820528
rfingers 7.12502
rthumb -14.2417 -30.3122
lclavicle -7.31528e-014 2.38542e-015
lhumerus -26.8346 -18.4724 97.2627
lradius 63.0526
lwrist 12.0324
lhand -10.0968 -10.276
lfingers 7.12502
lthumb 15.8904 19.092
rfemur -60.9936 -13.9147 3.28518
rtibia 76.1443
rfoot -31.1869 -13.465
rtoes -18.4909
lfemur -64.0427 -8.68594 -28.748
ltibia 62.3186
lfoot -13.5956 -26.1196
ltoes -5.66625
231
root 0.910137 15.7804 -18.077 205.715 149.138 -164.095
lowerback 90.1888 -8.29261 11.7357
upperback 5.80043 3.73628 -3.21745
thorax -10.9754 2.51338 -9.63424
lowerneck 1.23614 -10.0396 -0.286186
upperneck 4.38414 -13.2922 4.16731
head 1.48577 -6.49224 1.18872
rclavicle -2.22639e-014 -2.06736e-014
rhumerus 66.7031 -21.6816 -91.3605
rradius 5.06777
rwrist 65.6721
rhand -40.992 -0.243436
rfingers 7.12502
rthumb -13.9239 -29.7572
lclavicle -2.22639e-014 -2.06736e-014
lhumerus -26.7319 -18.4984 97.217
lradius 62.9674
lwrist 12.0034
lhand -10.1349 -10.3656
lfingers 7.12502
lthumb 15.8537 19.0053
rfemur -60.9587 -13.8452 3.41088
rtibia 75.9695
rfoot -31.1371 -13.4349
rtoes -18.5155
lfemur -63.9946 -8.65447 -28.6111
ltibia 62.2093
lfoot -13.6098 -26.02
ltoes -5.71703
232
root 0.909199 15.7941 -18.0737 205.667 149.191 -164.252
lowerback 90.0131 -8.16291 11.6366
upperback 5.85206 3.72443 -3.225
thorax -10.9608 2.50812 -9.61289
lowerneck 1.07041 -10.0272 -0.273907
upperneck 4.38764 -13.2838 4.16071
head 1.51322 -6.48828 1.17586
rclavicle 7.31528e-014 4.92986e-014
rhumerus 66.0263 -21.8287 -90.9723
rradius 5.29691
rwrist 63.7385
rhand -40.5319 0.600955
rfingers 7.12502
rthumb -13.4805 -28.9428
lclavicle 7.31528e-014 4.92986e-014
lhumerus -26.6266 -18.4308 97.1903
lradius 62.8981
lwrist 11.9586
lhand -10.1612 -10.4759
lfingers 7.12502
lthumb 15.8284 18.8971
rfemur -60.912 -13.7708 3.56961
rtibia 75.7683
rfoot -31.0633 -13.4153
rtoes -18.5381
lfemur -63.9493 -8.62165 -28.4546
ltibia 62.0854
lfoot -13.6324 -25.9057
ltoes -5.95433
233
root 0.907628 15.8098 -18.07 205.661 149.27 -164.372
lowerback 89.8175 -8.02384 11.5225
upperback 5.90059 3.70163 -3.24668
thorax -10.9565 2.49916 -9.60158
lowerneck 0.882189 -10.026 -0.273893
upperneck 4.41472 -13.2917 4.18107
head 1.55557 -6.49133 1.17088
rclavicle -1.36764e-013 6.83819e-014
rhumerus 65.2657 -22.0631 -90.5493
rradius 5.61557
rwrist 61.5954
rhand -40.0228 1.76292
rfingers 7.12502
rthumb -12.9898 -27.8127
lclavicle -1.36764e-013 6.83819e-014
lhumerus -26.5078 -18.3769 97.1377
lradius 62.8136
lwrist 11.9205
lhand -10.2143 -10.5899
lfingers 7.12502
lthumb 15.7773 18.7871
rfemur -60.8863 -13.6739 3.68642
rtibia 75.5508
rfoot -30.9715 -13.442
rtoes -18.6285
lfemur -63.9144 -8.59703 -28.3156
ltibia 61.9425
lfoot -13.6337 -25.7916
ltoes -6.01864
234
root 0.906877 15.8266 -18.0664 205.598 149.34 -164.537
lowerback 89.6701 -7.93623 11.4488
upperback 5.91501 3.67103 -3.28229
thorax -10.9798 2.48396 -9.61699
lowerneck 0.754271 -10.0129 -0.403737
upperneck 4.42632 -13.2836 4.26503
head 1.59696 -6.48846 1.20907
rclavicle -4.13472e-014 5.88403e-014
rhumerus 64.3717 -22.3222 -90.0737
rradius 6.05538
rwrist 59.3732
rhand -39.2574 2.8753
rfingers 7.12502
rthumb -12.2519 -26.7458
lclavicle -4.13472e-014 5.88403e-014
lhumerus -26.4523 -18.3607 97.0781
lradius 62.7776
lwrist 11.9488
lhand -10.2623 -10.7062
lfingers 7.12502
lthumb 15.731 18.6745
rfemur -60.7906 -13.56 3.83144
rtibia 75.296
rfoot -30.919 -13.409
rtoes -18.577
lfemur -63.8347 -8.57574 -28.1371
ltibia 61.782
lfoot -13.63 -25.6603
ltoes -6.08284
